<svg width="33" height="33" viewBox="0 0 33 33" fill="none" xmlns="http://www.w3.org/2000/svg">
<path fill-rule="evenodd" clip-rule="evenodd" d="M2.75 14.0938C2.75 8.58818 7.21318 4.125 12.7188 4.125H20.2812C25.7868 4.125 30.25 8.58818 30.25 14.0938C30.25 19.5993 25.7868 24.0625 20.2812 24.0625H19.25V28.875L17.5312 28.5312C6.1875 25.7812 2.75 19.5993 2.75 14.0938ZM18.7916 12.3751H19.9375V18.5626H13.0625V12.3751H14.2084V10.4701C14.2084 9.40218 15.2343 8.53648 16.5 8.53648C17.7657 8.53648 18.7916 9.40218 18.7916 10.4701V12.3751ZM16.5 9.91148C16.8233 9.91148 17.0784 10.0226 17.2338 10.1537C17.3862 10.2823 17.4166 10.3994 17.4166 10.4701V12.3177H15.5834V10.4701C15.5834 10.3994 15.6138 10.2823 15.7662 10.1537C15.9216 10.0226 16.1767 9.91148 16.5 9.91148Z" fill="#245353"/>
</svg>
