<svg width="40" height="40" viewBox="0 0 40 40" fill="none" xmlns="http://www.w3.org/2000/svg">
<path d="M19.1146 3.63965C19.4068 3.6418 19.699 3.64395 20 3.64616C20.2922 3.64401 20.5844 3.64186 20.8854 3.63965C21.6667 3.75033 21.6667 3.75033 22.5 4.58366C22.6107 5.36491 22.6107 5.36491 22.6042 6.25033C22.6074 6.68861 22.6074 6.68861 22.6107 7.13574C22.5 7.91699 22.5 7.91699 21.6667 8.75033C21.501 9.57875 21.3593 10.4126 21.25 11.2503C21.502 11.2416 21.7539 11.2329 22.0135 11.2239C23.1652 11.189 24.3168 11.1675 25.4688 11.1462C25.8651 11.1322 26.2615 11.1182 26.6699 11.1038C29.1848 11.0689 30.5825 11.2484 32.5 12.917C34.072 14.751 33.8533 16.4438 33.75 18.7503C34.9875 18.7503 36.225 18.7503 37.5 18.7503C37.5 21.6378 37.5 24.5253 37.5 27.5003C36.2625 27.5003 35.025 27.5003 33.75 27.5003C33.7844 28.0675 33.8187 28.6347 33.8542 29.2191C33.8511 31.1888 33.4104 32.2439 32.0833 33.7503C30.1218 35.2268 28.3321 35.1952 25.9432 35.2567C24.2432 35.2689 24.2432 35.2689 22.9167 36.2503C22.1354 36.361 22.1354 36.361 21.25 36.3545C20.9578 36.3566 20.6656 36.3588 20.3646 36.361C19.5833 36.2503 19.5833 36.2503 18.75 35.417C18.6393 34.6357 18.6393 34.6357 18.6458 33.7503C18.6426 33.312 18.6426 33.312 18.6393 32.8649C18.75 32.0837 18.75 32.0837 19.5833 31.2503C20.3646 31.1396 20.3646 31.1397 21.25 31.1462C21.5422 31.144 21.8344 31.1419 22.1354 31.1397C22.9167 31.2503 22.9167 31.2503 23.75 32.0837C25.7871 32.3558 27.7584 32.2458 29.5833 31.2503C31.5958 29.2379 30.9101 25.7965 30.9115 23.1514C30.9166 22.6398 30.9217 22.1282 30.9269 21.6011C30.9277 21.1077 30.9285 20.6144 30.9294 20.1061C30.9311 19.6563 30.9328 19.2065 30.9345 18.7431C30.7919 16.9921 30.414 15.831 29.1667 14.5837C27.5587 13.9735 25.8249 14.0995 24.1292 14.097C23.8036 14.0956 23.4779 14.0942 23.1424 14.0928C22.455 14.0907 21.7675 14.0897 21.08 14.0898C20.0312 14.0889 18.9825 14.0813 17.9338 14.0734C17.2645 14.0722 16.5953 14.0714 15.9261 14.071C15.614 14.068 15.3019 14.065 14.9803 14.0619C12.7794 14.0715 11.1709 14.2461 9.58333 15.8337C9.01374 17.386 9.07378 19.0367 9.03483 20.6709C9.02617 20.9737 9.01751 21.2766 9.00859 21.5886C8.98143 22.5522 8.95683 23.5158 8.93229 24.4795C8.91429 25.1343 8.89611 25.7892 8.87777 26.444C8.83325 28.0461 8.79102 29.6482 8.75 31.2503C9.575 31.2503 10.4 31.2503 11.25 31.2503C11.25 29.6003 11.25 27.9503 11.25 26.2503C17.025 26.2503 22.8 26.2503 28.75 26.2503C28.75 27.4878 28.75 28.7253 28.75 30.0003C27.925 30.0003 27.1 30.0003 26.25 30.0003C26.25 29.5878 26.25 29.1753 26.25 28.7503C22.125 28.7503 18 28.7503 13.75 28.7503C13.75 29.5753 13.75 30.4003 13.75 31.2503C14.575 31.2503 15.4 31.2503 16.25 31.2503C16.25 32.0753 16.25 32.9003 16.25 33.7503C12.95 33.7503 9.65 33.7503 6.25 33.7503C6.25 31.6878 6.25 29.6253 6.25 27.5003C5.0125 27.5003 3.775 27.5003 2.5 27.5003C2.5 24.6128 2.5 21.7253 2.5 18.7503C3.7375 18.7503 4.975 18.7503 6.25 18.7503C6.21563 18.1831 6.18125 17.616 6.14583 17.0316C6.14893 15.0619 6.58959 14.0067 7.91667 12.5003C9.90733 10.8296 12.0446 11.1078 14.5052 11.1722C14.9131 11.1778 15.3211 11.1835 15.7414 11.1893C16.7445 11.204 17.7471 11.2245 18.75 11.2503C18.3915 9.4452 18.3915 9.4452 17.5 7.91699C17.3862 5.52695 17.3862 5.52695 17.5 4.58366C18.3333 3.75033 18.3333 3.75033 19.1146 3.63965ZM5 21.2503C5 22.4878 5 23.7253 5 25.0003C5.4125 25.0003 5.825 25.0003 6.25 25.0003C6.25 23.7628 6.25 22.5253 6.25 21.2503C5.8375 21.2503 5.425 21.2503 5 21.2503ZM33.75 21.2503C33.75 22.4878 33.75 23.7253 33.75 25.0003C34.1625 25.0003 34.575 25.0003 35 25.0003C35 23.7628 35 22.5253 35 21.2503C34.5875 21.2503 34.175 21.2503 33.75 21.2503Z" fill="#2B2B2B"/>
<path d="M24.1147 17.3896C24.4069 17.3918 24.699 17.3939 25.0001 17.3962C25.2923 17.394 25.5845 17.3919 25.8855 17.3896C26.6667 17.5003 26.6667 17.5003 27.5001 18.3337C27.6108 19.1149 27.6108 19.1149 27.6042 20.0003C27.6064 20.2925 27.6085 20.5847 27.6108 20.8857C27.5001 21.667 27.5001 21.667 26.6667 22.5003C25.8855 22.611 25.8855 22.611 25.0001 22.6045C24.7079 22.6066 24.4157 22.6088 24.1147 22.611C23.3334 22.5003 23.3334 22.5003 22.5001 21.667C22.3894 20.8857 22.3894 20.8857 22.3959 20.0003C22.3938 19.7081 22.3916 19.416 22.3894 19.1149C22.5497 17.9838 22.9835 17.5499 24.1147 17.3896Z" fill="#2B2B2B"/>
<path d="M14.1147 17.3896C14.4069 17.3918 14.699 17.3939 15.0001 17.3962C15.2923 17.394 15.5845 17.3919 15.8855 17.3896C16.6667 17.5003 16.6667 17.5003 17.5001 18.3337C17.6108 19.1149 17.6108 19.1149 17.6042 20.0003C17.6064 20.2925 17.6085 20.5847 17.6108 20.8857C17.5001 21.667 17.5001 21.667 16.6667 22.5003C15.8855 22.611 15.8855 22.611 15.0001 22.6045C14.7079 22.6066 14.4157 22.6088 14.1147 22.611C13.3334 22.5003 13.3334 22.5003 12.5001 21.667C12.3894 20.8857 12.3894 20.8857 12.3959 20.0003C12.3938 19.7081 12.3916 19.416 12.3894 19.1149C12.5497 17.9838 12.9835 17.5499 14.1147 17.3896Z" fill="#2B2B2B"/>
</svg>
