<svg width="18" height="18" viewBox="0 0 18 18" fill="none" xmlns="http://www.w3.org/2000/svg">
<g clip-path="url(#clip0_393_164)">
<path d="M10.2975 15.75C10.1657 15.9773 9.9764 16.166 9.74868 16.2971C9.52097 16.4283 9.2628 16.4973 9.00001 16.4973C8.73723 16.4973 8.47906 16.4283 8.25134 16.2971C8.02363 16.166 7.83437 15.9773 7.70251 15.75" stroke="#245353" stroke-width="2" stroke-linecap="round" stroke-linejoin="round"/>
<path d="M13.9725 9.75C13.6389 8.52856 13.4798 7.26603 13.5 6" stroke="#245353" stroke-width="2" stroke-linecap="round" stroke-linejoin="round"/>
<path d="M4.695 4.69482C4.5647 5.11753 4.49896 5.55749 4.5 5.99982C4.5 11.2498 2.25 12.7498 2.25 12.7498H12.75" stroke="#245353" stroke-width="2" stroke-linecap="round" stroke-linejoin="round"/>
<path d="M13.4999 5.99984C13.5012 5.18464 13.2809 4.38442 12.8627 3.68466C12.4445 2.9849 11.8441 2.41188 11.1255 2.02682C10.407 1.64176 9.59737 1.45911 8.78312 1.49839C7.96886 1.53767 7.18057 1.7974 6.50244 2.24984" stroke="#245353" stroke-width="2" stroke-linecap="round" stroke-linejoin="round"/>
<path d="M0.75 0.75L17.25 17.25" stroke="#245353" stroke-width="2" stroke-linecap="round" stroke-linejoin="round"/>
</g>
<defs>
<clipPath id="clip0_393_164">
<rect width="18" height="18" fill="white"/>
</clipPath>
</defs>
</svg>
