<svg width="40" height="39" viewBox="0 0 40 39" fill="none" xmlns="http://www.w3.org/2000/svg">
<path d="M9.17529 17.0647C12.2329 17.0338 13.939 17.3351 17.185 18.6273L17.815 17.1228C14.3757 15.7536 12.45 15.4065 9.15796 15.4397L9.17529 17.0647Z" fill="#727272"/>
<path d="M17.185 21.8773C13.939 20.5851 12.2329 20.2838 9.17529 20.3147L9.15796 18.6897C12.45 18.6565 14.3757 19.0036 17.815 20.3728L17.185 21.8773Z" fill="#727272"/>
<path d="M9.17529 23.5647C12.2329 23.5338 13.939 23.8351 17.185 25.1273L17.815 23.6228C14.3757 22.2536 12.45 21.9065 9.15796 21.9397L9.17529 23.5647Z" fill="#727272"/>
<path d="M30.8247 23.5647C27.7671 23.5338 26.061 23.8351 22.8151 25.1273L22.1851 23.6228C25.6243 22.2536 27.55 21.9065 30.842 21.9397L30.8247 23.5647Z" fill="#727272"/>
<path d="M22.8151 21.8773C26.061 20.5851 27.7671 20.2838 30.8247 20.3147L30.842 18.6897C27.55 18.6565 25.6243 19.0036 22.1851 20.3728L22.8151 21.8773Z" fill="#727272"/>
<path d="M30.8247 17.0647C27.7671 17.0338 26.061 17.3351 22.8151 18.6273L22.1851 17.1228C25.6243 15.7536 27.55 15.4065 30.842 15.4397L30.8247 17.0647Z" fill="#727272"/>
<path d="M11.2499 13V10.5625H9.58325V13H11.2499Z" fill="#727272"/>
<path d="M14.1667 11.375V13.8125H12.5V11.375H14.1667Z" fill="#727272"/>
<path d="M17.0834 14.625V12.1875H15.4167V14.625H17.0834Z" fill="#727272"/>
<path d="M28.75 13V10.5625H30.4167V13H28.75Z" fill="#727272"/>
<path d="M25.8333 11.375V13.8125H27.4999V11.375H25.8333Z" fill="#727272"/>
<path d="M22.9167 14.625V12.1875H24.5834V14.625H22.9167Z" fill="#727272"/>
<path fill-rule="evenodd" clip-rule="evenodd" d="M19.9999 9.13263C20.0718 9.11768 20.1435 9.10289 20.2148 9.08827C24.378 7.13266 27.9658 5.72723 32.9383 6.96862C33.6812 7.15406 34.1666 7.81019 34.1666 8.5248V8.75335C34.7668 8.87076 35.3881 9.00523 36.0361 9.15749C36.4073 9.24467 36.6666 9.56991 36.6666 9.94212V30.6922C36.6666 31.2063 36.181 31.5904 35.663 31.494C30.4859 30.531 26.9958 30.4636 22.2284 31.1684C21.815 31.9588 20.9723 32.5 19.9999 32.5C19.0275 32.5 18.1848 31.9588 17.7714 31.1684C13.004 30.4636 9.51392 30.531 4.33679 31.494C3.81882 31.5904 3.33325 31.2063 3.33325 30.6922V9.94212C3.33325 9.56991 3.59258 9.24467 3.96374 9.15749C4.61179 9.00523 5.2331 8.87076 5.83325 8.75335V8.5248C5.83325 7.81019 6.31869 7.15406 7.06149 6.96862C12.0341 5.72723 15.6219 7.13267 19.785 9.08827C19.8563 9.10289 19.9279 9.11768 19.9999 9.13263ZM20.8333 10.6008C24.9826 8.64716 28.1115 7.44854 32.4999 8.53658V26.8574C32.4999 26.8574 32.4972 26.8615 32.4937 26.8641C32.4818 26.8735 32.4663 26.8776 32.4496 26.8746C28.3672 26.1443 25.2158 26.9041 21.7871 28.3582C21.5226 28.0945 21.1973 27.8892 20.8333 27.7637V10.6008ZM19.1666 10.6016V27.7637C18.8026 27.8892 18.4773 28.0945 18.2128 28.3582C14.7841 26.9041 11.6327 26.1443 7.55029 26.8746C7.53353 26.8776 7.51811 26.8735 7.50613 26.8641L7.50487 26.8631C7.50202 26.8605 7.49992 26.8574 7.49992 26.8574V8.53658C11.8883 7.44854 15.0173 8.64797 19.1666 10.6016ZM34.9999 10.5896C34.7169 10.5266 34.4393 10.4675 34.1666 10.4119V26.8574C34.1666 27.9219 33.1579 28.6534 32.1488 28.4729C29.0023 27.91 26.4819 28.3166 23.755 29.3283C27.5659 28.8948 30.7786 29.0017 34.9999 29.7235V10.5896ZM16.2448 29.3283C13.518 28.3166 10.9976 27.91 7.85108 28.4729C6.84192 28.6534 5.83325 27.9219 5.83325 26.8574V10.4119C5.56051 10.4675 5.28294 10.5266 4.99992 10.5896V29.7235C9.22125 29.0017 12.434 28.8948 16.2448 29.3283Z" fill="#727272"/>
</svg>
