<svg width="40" height="40" viewBox="0 0 40 40" fill="none" xmlns="http://www.w3.org/2000/svg">
<path fill-rule="evenodd" clip-rule="evenodd" d="M12.0272 27.8679C11.311 28.3076 10.8333 29.098 10.8333 29.9999C10.8333 31.3807 11.9526 32.4999 13.3333 32.4999C14.7141 32.4999 15.8333 31.3807 15.8333 29.9999C15.8333 28.7299 14.8863 27.6811 13.6599 27.5211C13.6326 27.4232 13.6041 27.3103 13.5751 27.1838C13.4753 26.7476 13.38 26.1943 13.3091 25.6259C13.238 25.0565 13.1939 24.4919 13.191 24.0312C13.1899 23.8623 13.1945 23.7151 13.2038 23.5917C13.5244 23.4997 13.8459 23.4168 14.1667 23.3438C14.5344 23.26 14.7521 23.6941 14.9284 24.0458C14.953 24.0948 14.9767 24.1422 15 24.1863H18.3866C19.1497 24.1862 19.527 24.1863 19.9086 24.1863C20.2813 24.1864 20.6588 24.1865 21.4042 24.1863H24.7911C24.9812 23.8251 25.4143 23.2483 25.8333 23.3438C26.2802 23.4456 26.7287 23.5664 27.1741 23.7046L27.1713 23.7059C27.1703 23.704 27.1704 23.7043 27.1714 23.7072C27.1753 23.7188 27.1937 23.7733 27.2118 23.8915C27.2326 24.026 27.247 24.2008 27.2529 24.4113C27.2647 24.8316 27.2412 25.3424 27.1914 25.8572C27.1416 26.3713 27.0676 26.869 26.9842 27.2619C26.9658 27.3489 26.9474 27.4283 26.9293 27.4999H25.8333C25.5177 27.4999 25.2292 27.6783 25.088 27.9606L24.2547 29.6273C24.1968 29.7429 24.1667 29.8706 24.1667 29.9999V31.6666C24.1667 32.1268 24.5397 32.4999 25 32.4999H26.6667V30.8333H25.8333V30.1967L26.3483 29.1666H28.6517L29.1667 30.1967V30.8333H28.3333V32.4999H30C30.4602 32.4999 30.8333 32.1268 30.8333 31.6666V29.9999C30.8333 29.8706 30.8033 29.7429 30.7453 29.6273L29.912 27.9606C29.7708 27.6783 29.4823 27.4999 29.1667 27.4999H28.6369C28.7259 27.056 28.8 26.5373 28.8503 26.0177C28.9047 25.456 28.9332 24.8731 28.9189 24.3646L28.9182 24.3417C32.2412 25.7457 35 28.055 35 30.4748V34.9999H5V30.4748C5 27.9479 8.00828 25.5415 11.5258 24.1608C11.5353 24.6788 11.5844 25.2651 11.6552 25.8323C11.7316 26.4445 11.8357 27.0543 11.9505 27.5557C11.9751 27.6631 12.0007 27.7677 12.0272 27.8679ZM13.3333 30.8455C13.782 30.8455 14.1667 30.4784 14.1667 29.9999C14.1667 29.5214 13.782 29.1543 13.3333 29.1543C12.8847 29.1543 12.5 29.5214 12.5 29.9999C12.5 30.4784 12.8847 30.8455 13.3333 30.8455Z" fill="#245353"/>
<path fill-rule="evenodd" clip-rule="evenodd" d="M20.0001 20C23.682 20 26.6667 17.0153 26.6667 13.3333C26.6667 9.65142 23.682 6.66667 20.0001 6.66667C16.3182 6.66667 13.3334 9.65142 13.3334 13.3333C13.3334 17.0153 16.3182 20 20.0001 20ZM20.0001 21.6667C24.6024 21.6667 28.3334 17.9357 28.3334 13.3333C28.3334 8.731 24.6024 5 20.0001 5C15.3977 5 11.6667 8.731 11.6667 13.3333C11.6667 17.9357 15.3977 21.6667 20.0001 21.6667Z" fill="#245353"/>
</svg>
