<svg width="40" height="39" viewBox="0 0 40 39" fill="none" xmlns="http://www.w3.org/2000/svg">
<path fill-rule="evenodd" clip-rule="evenodd" d="M34.7569 20.9578L20.0483 6.56982L5.24504 20.9559C4.91908 21.2727 4.91821 21.7871 5.24312 22.105C5.56802 22.4228 6.09566 22.4236 6.42162 22.1068L8.33333 20.249V31.6875C8.33333 32.1362 8.70642 32.5 9.16667 32.5H16.6667C17.1269 32.5 17.5 32.1362 17.5 31.6875V24.5857C17.5 24.1369 17.8731 23.7732 18.3333 23.7732H21.6667C22.1269 23.7732 22.5 24.1369 22.5 24.5857V31.6875C22.5 32.1362 22.8731 32.5 23.3333 32.5H30.8333C31.2936 32.5 31.6667 32.1362 31.6667 31.6875V20.2368L33.5764 22.105C33.9013 22.4228 34.429 22.4236 34.7549 22.1068C35.0809 21.79 35.0818 21.2756 34.7569 20.9578ZM30 18.6065L20.0444 8.86795L10 18.6293V30.875H15.8333V24.5857C15.8333 23.2394 16.9526 22.1482 18.3333 22.1482H21.6667C23.0474 22.1482 24.1667 23.2394 24.1667 24.5857V30.875H30V18.6065Z" fill="#2B2B2B"/>
</svg>
