<svg width="40" height="40" viewBox="0 0 40 40" fill="none" xmlns="http://www.w3.org/2000/svg">
<path fill-rule="evenodd" clip-rule="evenodd" d="M23.75 7.08325C23.75 9.15434 22.0711 10.8333 20 10.8333C17.9289 10.8333 16.25 9.15434 16.25 7.08325C16.25 5.01219 17.9289 3.33325 20 3.33325C22.0711 3.33325 23.75 5.01219 23.75 7.08325ZM25 28.3333H21.0538L21.6735 35.1508C21.7542 36.0383 22.5187 36.7053 23.4088 36.6649C24.2991 36.6245 25 35.891 25 34.9999V28.3333ZM18.9463 28.3333H15V34.9999C15 35.891 15.701 36.6245 16.5912 36.6649C17.4813 36.7053 18.2458 36.0383 18.3265 35.1508L18.9463 28.3333ZM29.9629 11.6666H30.0386C30.0134 11.666 29.9883 11.666 29.9629 11.6666ZM9.96167 11.6666C9.98659 11.666 10.0115 11.666 10.0365 11.6666H9.96167Z" fill="#245353"/>
<path fill-rule="evenodd" clip-rule="evenodd" d="M9.16659 12.5C8.70634 12.5 8.33325 12.8731 8.33325 13.3333V25.8333C8.33325 26.2936 8.70634 26.6667 9.16659 26.6667H30.8333C31.2935 26.6667 31.6666 26.2936 31.6666 25.8333V13.3333C31.6666 12.8731 31.2935 12.5 30.8333 12.5H9.16659ZM19.1666 14.1667V15.4167H18.7499C17.9742 15.4167 17.1325 15.6673 16.5381 15.8835C16.2295 15.9957 15.9638 16.1076 15.7748 16.1916C15.6799 16.2337 15.6037 16.2693 15.55 16.2947C15.5232 16.3074 15.502 16.3177 15.4869 16.325L15.469 16.3338L15.4636 16.3365L15.4618 16.3374L15.4608 16.3378C15.4608 16.3378 15.4606 16.338 15.8333 17.0833C16.2059 17.8287 16.2058 17.8288 16.2058 17.8288L16.2072 17.8281L16.2177 17.8229C16.2276 17.8181 16.2434 17.8104 16.2646 17.8004C16.307 17.7803 16.3707 17.7506 16.4517 17.7147C16.6141 17.6424 16.8433 17.546 17.1076 17.4498C17.659 17.2493 18.2757 17.0833 18.7499 17.0833H19.1666V18.75H18.4999C17.5022 18.75 16.4553 19.2798 15.7555 19.704C15.3843 19.929 15.0656 20.1528 14.8398 20.3199C14.7265 20.4039 14.6355 20.4744 14.5718 20.5247C14.5399 20.55 14.5148 20.5702 14.4971 20.5847L14.476 20.6019L14.4698 20.6071L14.4678 20.6087L14.467 20.6093C14.467 20.6093 14.4664 20.6098 14.9999 21.25C15.5334 21.8902 15.5332 21.8903 15.5332 21.8903L15.5354 21.8886L15.5484 21.8779C15.5608 21.8679 15.58 21.8523 15.6058 21.832C15.6573 21.7913 15.7343 21.7315 15.8319 21.6593C16.028 21.5139 16.3031 21.321 16.6193 21.1293C17.2945 20.7202 17.9977 20.4167 18.4999 20.4167H19.1666V22.2232C18.5821 22.3875 18.0209 22.6753 17.5661 23.0013C17.2329 23.2403 16.9238 23.523 16.6896 23.8338C16.4658 24.131 16.2499 24.5353 16.2499 25H17.9166C17.9166 25.0036 17.9165 25.0067 17.9164 25.0091C17.9163 25.0113 17.9162 25.0142 17.9162 25.0142C17.916 25.016 17.9161 25.017 17.9161 25.017C17.9161 25.017 17.9165 25.0161 17.9172 25.0142C17.9215 25.0013 17.9413 24.9423 18.0209 24.8365C18.1296 24.6923 18.3047 24.5227 18.5373 24.3558C19.0043 24.021 19.573 23.7887 20.0266 23.7503C20.4113 23.7598 20.9564 23.9704 21.4368 24.3198C21.6725 24.4912 21.8548 24.6694 21.97 24.8229C22.0543 24.9353 22.0767 24.999 22.0822 25.0145L22.0828 25.0165L22.0837 25.0183C22.0837 25.0183 22.0833 25.0121 22.0833 25H23.7499C23.7499 24.5316 23.5269 24.121 23.3033 23.8229C23.0668 23.5077 22.7544 23.2172 22.4172 22.9719C21.9728 22.6488 21.4157 22.3547 20.8333 22.1992V20.4167H21.7499C22.374 20.4167 23.0154 20.7219 23.5525 21.0988C23.8112 21.2803 24.0237 21.463 24.1706 21.5998C24.2437 21.6677 24.2994 21.7233 24.3354 21.7602C24.3533 21.7786 24.3663 21.7922 24.3739 21.8004L24.3808 21.8078C24.3808 21.8078 24.3805 21.8075 24.9999 21.25C25.6193 20.6925 25.619 20.6922 25.619 20.6922L25.6178 20.6908L25.6157 20.6885L25.6098 20.682L25.5913 20.6622C25.5762 20.6459 25.5552 20.6237 25.5288 20.5967C25.4758 20.5424 25.4007 20.4678 25.3058 20.3794C25.1168 20.2037 24.8449 19.9697 24.5098 19.7345C23.8594 19.2781 22.8758 18.75 21.7499 18.75H20.8333V17.0833H21.4583C22.0368 17.0833 22.5993 17.2509 23.0359 17.4347C23.2502 17.5249 23.4243 17.6148 23.5423 17.6808C23.6012 17.7137 23.6455 17.7402 23.6733 17.7573C23.6872 17.7658 23.6968 17.7719 23.7022 17.7753L23.7047 17.7769C23.7047 17.7769 23.7043 17.7768 24.1666 17.0833C24.6288 16.3899 24.6284 16.3897 24.6284 16.3897L24.6272 16.3888L24.625 16.3874L24.6193 16.3837L24.6023 16.3727C24.5885 16.3638 24.5699 16.3521 24.5468 16.3378C24.5005 16.3093 24.4358 16.2708 24.3546 16.2255C24.1928 16.1352 23.9632 16.0167 23.6827 15.8987C23.1297 15.6657 22.338 15.4167 21.4583 15.4167H20.834L20.8333 14.1667H19.1666Z" fill="#245353"/>
</svg>
