<svg width="72" height="72" viewBox="0 0 72 72" fill="none" xmlns="http://www.w3.org/2000/svg">
<path d="M36 37.5C39.3137 37.5 42 34.8137 42 31.5C42 28.1863 39.3137 25.5 36 25.5C32.6863 25.5 30 28.1863 30 31.5C30 34.8137 32.6863 37.5 36 37.5Z" fill="#2DE5E6"/>
<path fill-rule="evenodd" clip-rule="evenodd" d="M10.5 34.5C10.5 40.4133 12.5128 45.8567 15.8907 50.1819L13.9969 54.6652C12.326 58.6209 15.2299 63 19.524 63H52.4762C56.7702 63 59.6742 58.6209 58.0032 54.6652L56.1095 50.1819C59.4872 45.8565 61.5 40.4133 61.5 34.5C61.5 20.4168 50.0832 9 36 9C21.9168 9 10.5 20.4168 10.5 34.5ZM43.5 48L45.9 60H52.4762C54.6233 60 56.0751 57.8105 55.2397 55.8327L48.1493 39.0469C47.68 37.9362 46.5914 37.2144 45.3857 37.2144H42.9536C43.6748 36.3378 44.2335 35.3225 44.5836 34.2144H45.3857C46.5923 34.2144 47.7404 34.5759 48.7038 35.2153C48.8121 34.5456 48.8684 33.8583 48.8684 33.1579C48.8684 26.0944 43.1424 20.3684 36.0789 20.3684C29.0156 20.3684 23.2895 26.0944 23.2895 33.1579C23.2895 33.8262 23.3407 34.4826 23.4396 35.1232C24.3726 34.5412 25.467 34.2144 26.6145 34.2144H27.4165C27.7667 35.3225 28.3254 36.3378 29.0466 37.2144H26.6145C25.4088 37.2144 24.3201 37.9362 23.8509 39.0469L16.7604 55.8327C15.9251 57.8105 17.3769 60 19.524 60H26.1L28.5 48H27.6217L24.6345 56.9614C24.2417 58.1404 22.9674 58.7775 21.7885 58.3845C20.6095 57.9916 19.9725 56.7174 20.3655 55.5385L24.1816 44.0898C24.8962 41.946 26.9025 40.5 29.1623 40.5H42.8377C45.0975 40.5 47.1038 41.946 47.8184 44.0898L51.6345 55.5385C52.0275 56.7174 51.3905 57.9916 50.2115 58.3845C49.0326 58.7775 47.7584 58.1404 47.3655 56.9614L44.3783 48H43.5ZM29.7236 17.5041C31.7792 16.6695 33.9792 16.248 36.1977 16.2636C38.4164 16.2792 40.6101 16.7316 42.6539 17.595L43.8214 14.8315C41.4147 13.8148 38.8314 13.282 36.2189 13.2636C33.6063 13.2453 31.0156 13.7417 28.5949 14.7245L29.7236 17.5041Z" fill="#2DE5E6"/>
</svg>
