<svg width="40" height="40" viewBox="0 0 40 40" fill="none" xmlns="http://www.w3.org/2000/svg">
<path fill-rule="evenodd" clip-rule="evenodd" d="M7.5 5C6.11929 5 5 6.11929 5 7.5V32.5C5 33.8807 6.11929 35 7.5 35H32.5C33.8807 35 35 33.8807 35 32.5V7.5C35 6.11929 33.8807 5 32.5 5H7.5ZM30 9.16667C30 11.4074 28.5682 12.6319 26.6667 13.8987C25.6192 13.2008 24.7142 12.5158 24.1126 11.6667H27.5C27.9602 11.6667 28.3333 11.2936 28.3333 10.8333C28.3333 10.3731 27.9602 10 27.5 10H23.4053C23.3581 9.73817 23.3333 9.46117 23.3333 9.16667H21.6667C21.6667 12.0092 23.3978 13.6512 25.1563 14.8876C24.4639 15.3523 23.776 15.8563 23.208 16.4338C22.3151 17.3417 21.6667 18.4784 21.6667 20C21.6667 21.5216 22.3151 22.6583 23.208 23.5662C23.776 24.1437 24.4639 24.6477 25.1563 25.1124C23.3978 26.3488 21.6667 27.9908 21.6667 30.8333H23.3333C23.3333 28.5926 24.7651 27.3682 26.6667 26.1012C27.7142 26.7992 28.6192 27.4842 29.2207 28.3333H25.8333C25.3731 28.3333 25 28.7064 25 29.1667C25 29.6269 25.3731 30 25.8333 30H29.928C29.9753 30.2618 30 30.5388 30 30.8333H31.6667C31.6667 27.9908 29.9355 26.3488 28.177 25.1124C28.8694 24.6477 29.5573 24.1437 30.1253 23.5662C31.0182 22.6583 31.6667 21.5216 31.6667 20C31.6667 18.4784 31.0182 17.3417 30.1253 16.4338C29.5573 15.8563 28.8694 15.3523 28.177 14.8876C29.9355 13.6512 31.6667 12.0092 31.6667 9.16667H30ZM24.4996 17.5C25.0863 16.9317 25.8298 16.4336 26.6667 15.8893C27.5036 16.4336 28.2471 16.9317 28.8337 17.5H24.4996ZM23.4398 19.1667C23.3699 19.4256 23.3333 19.7016 23.3333 20C23.3333 20.2984 23.3699 20.5744 23.4398 20.8333H29.8936C29.9634 20.5744 30 20.2984 30 20C30 19.7016 29.9634 19.4256 29.8936 19.1667H23.4398ZM26.6667 24.1107C25.8298 23.5664 25.0863 23.0683 24.4996 22.5H28.8337C28.2471 23.0683 27.5036 23.5664 26.6667 24.1107ZM10.8333 14.1667C10.8333 13.7064 11.2064 13.3333 11.6667 13.3333H17.5C17.9602 13.3333 18.3333 13.7064 18.3333 14.1667V15.8333C18.3333 16.2936 17.9602 16.6667 17.5 16.6667H16.6667V20.0397L20.1926 25.7483C21.5642 27.9691 19.9668 30.8333 17.3566 30.8333H11.8101C9.19983 30.8333 7.60242 27.9691 8.97408 25.7483L12.5 20.0397V16.6667H11.6667C11.2064 16.6667 10.8333 16.2936 10.8333 15.8333V14.1667Z" fill="#245353"/>
</svg>
