<?xml version="1.0" encoding="UTF-8"?>
<svg version="1.1" xmlns="http://www.w3.org/2000/svg" width="1170" height="916">
<path d="M0 0 C0 205.59 0 411.18 0 623 C170.28 623 340.56 623 516 623 C516 616.07 516 609.14 516 602 C352.32 602 188.64 602 20 602 C20 545.51492537 20 545.51492537 27.3203125 537.5390625 C32.30474259 532.97193353 37.75319906 530.87444397 44.45942807 530.8758015 C45.35426908 530.87355421 46.24911008 530.87130692 47.17106748 530.86899152 C48.1520449 530.87161854 49.13302233 530.87424555 50.14372635 530.87695217 C51.19175666 530.87579833 52.23978698 530.87464448 53.31957579 530.87345567 C56.86062885 530.87079129 60.4016372 530.87530976 63.94268799 530.87974548 C66.49526694 530.87930975 69.04784586 530.87843479 71.60042453 530.87715632 C77.16522916 530.87508047 82.73002311 530.87672996 88.29482651 530.88079453 C96.56952641 530.88682166 104.84421956 530.88713106 113.11892125 530.88625254 C127.03728306 530.88493758 140.95564012 530.88828405 154.87400055 530.89426994 C168.65866367 530.90018317 182.44332482 530.90403512 196.2279892 530.90512276 C197.51272022 530.90522587 197.51272022 530.90522587 198.82340541 530.90533106 C203.17291733 530.90566938 207.52242926 530.90597077 211.87194118 530.90625793 C242.69457671 530.9083594 273.51720967 530.91509968 304.33984375 530.92456055 C334.28710924 530.93374213 364.23437401 530.94082714 394.18164062 530.94506836 C395.5658413 530.94526565 395.5658413 530.94526565 396.97800562 530.94546692 C406.24498829 530.94678542 415.51197096 530.94806124 424.77895364 530.94930578 C443.6575471 530.95184212 462.5361405 530.95466338 481.41473389 530.95765686 C482.71679838 530.9578628 482.71679838 530.9578628 484.0451672 530.95807289 C542.03011261 530.96727647 600.01505633 530.98335003 658 531 C658 554.43 658 577.86 658 602 C634.57 602 611.14 602 587 602 C587 608.93 587 615.86 587 623 C617.03 623 647.06 623 678 623 C678 592.64 678 562.28 678 531 C701.76 531 725.52 531 750 531 C750 561.36 750 591.72 750 623 C756.6 623 763.2 623 770 623 C770 592.64 770 562.28 770 531 C793.76 531 817.52 531 842 531 C842 561.36 842 591.72 842 623 C848.6 623 855.2 623 862 623 C862 592.64 862 562.28 862 531 C885.43 531 908.86 531 933 531 C933.16121214 567.03986882 933.16121214 567.03986882 933.1953125 582.15234375 C933.21903905 592.58357619 933.24691869 603.0146793 933.30175781 613.44580078 C933.34167937 621.04303938 933.36744556 628.64017297 933.37635398 636.23751354 C933.38155976 640.25872487 933.39375836 644.27963585 933.42292023 648.30075073 C933.45017363 652.0895882 933.45842515 655.87800306 933.45243073 659.66692924 C933.45352655 661.05361672 933.46142154 662.44031907 933.4768219 663.82692146 C933.57287736 672.92569047 932.87088591 678.79273681 927.359375 686.20703125 C926.82828125 686.73683594 926.2971875 687.26664063 925.75 687.8125 C924.96882813 688.62654297 924.96882813 688.62654297 924.171875 689.45703125 C916.39353877 694.98300753 907.85218563 694.42041215 898.74134064 694.36914349 C897.17325316 694.3713639 895.60516709 694.37490125 894.03708518 694.37963298 C889.72045918 694.38883537 885.40404532 694.37931879 881.08743513 694.36679858 C876.3943088 694.35649343 871.70120392 694.36360886 867.00807333 694.36853105 C858.78043456 694.37475344 850.55286086 694.36981895 842.32522964 694.35761642 C830.09102721 694.33952205 817.85686586 694.33860802 805.62265249 694.34124239 C785.04345125 694.34518567 764.46427889 694.33515388 743.88508606 694.31719017 C723.50559852 694.29944634 703.12612301 694.28789379 682.74662781 694.28463173 C680.84677125 694.2843224 680.84677125 694.2843224 678.90853375 694.28400682 C672.47640438 694.28299184 666.044275 694.28208768 659.6121456 694.2812262 C614.03927239 694.27492297 568.46641816 694.25470765 522.89355469 694.22631836 C511.84737148 694.21944337 500.80118824 694.21261727 489.75500488 694.20599365 C488.7273743 694.20537738 488.7273743 694.20537738 487.6789835 694.20474866 C455.82989925 694.18571576 423.98081365 694.17453944 392.1317252 694.16538927 C390.06401112 694.16479508 387.99629703 694.1641975 385.92858294 694.16359923 C372.2257124 694.15963988 358.52284183 694.15581593 344.81997123 694.15208265 C316.905005 694.14447613 288.99003906 694.13601001 261.07507324 694.12702942 C259.79155469 694.12661755 258.50803613 694.12620568 257.18562307 694.12578133 C171.45707551 694.09817378 85.72853667 694.05063754 0 694 C0.00999275 695.32638489 0.00999275 695.32638489 0.02018738 696.67956543 C0.08043911 705.03581404 0.12604572 713.39198908 0.15543652 721.74840546 C0.17105488 726.04395355 0.19222266 730.3393213 0.22631836 734.63476562 C0.25904913 738.7844875 0.27688179 742.93403651 0.28463173 747.08387756 C0.29015072 748.6626304 0.30092777 750.24137438 0.31719017 751.8200531 C0.50314386 770.62923556 0.50314386 770.62923556 -6.125 778.25 C-6.64320313 778.87390625 -7.16140625 779.4978125 -7.6953125 780.140625 C-16.69458825 787.40105764 -26.96553887 786.57579573 -37.94702148 786.53344727 C-39.87299255 786.54051164 -41.79895806 786.54925883 -43.72491455 786.55955505 C-48.93778819 786.58200041 -54.15035751 786.57912064 -59.36326098 786.57023358 C-63.72205657 786.56511283 -68.08079552 786.57242508 -72.43958527 786.57970566 C-82.72548054 786.59668923 -93.01122741 786.59315428 -103.29711914 786.57641602 C-113.89399482 786.55949424 -124.49045857 786.57533367 -135.08728927 786.6076389 C-144.20010907 786.63436329 -153.31280086 786.64160314 -162.4256559 786.63312382 C-167.86192695 786.62820319 -173.2979502 786.63036359 -178.73418999 786.65091133 C-183.84716056 786.66931324 -188.95954012 786.66325448 -194.07247925 786.63871193 C-195.94368765 786.63371845 -197.81494143 786.6371556 -199.68611336 786.64986038 C-218.69768936 786.76868554 -218.69768936 786.76868554 -226 781 C-234.33689692 771.96776706 -235.14865149 763.55065535 -235.16113281 751.62963867 C-235.16609772 750.49229782 -235.17106262 749.35495697 -235.17617798 748.18315125 C-235.19075923 744.42808421 -235.19759452 740.67305942 -235.203125 736.91796875 C-235.20887929 734.30251566 -235.21463699 731.68706257 -235.22039795 729.0716095 C-235.22995592 724.28982622 -235.23586109 719.50805201 -235.2388947 714.72626036 C-235.24337318 707.70753288 -235.260919 700.68900036 -235.2898953 693.67033213 C-235.3141873 687.57279038 -235.32184237 681.47532862 -235.32357025 675.37774086 C-235.32659192 672.79224905 -235.33460398 670.20675796 -235.34775543 667.62129784 C-235.36486166 664.00023094 -235.36292428 660.37963613 -235.35644531 656.75854492 C-235.3656601 655.69694153 -235.37487488 654.63533813 -235.3843689 653.54156494 C-235.33543982 644.78595951 -233.78422645 636.84974185 -228 630 C-222.49972752 625.74752073 -218.00860921 622.87258988 -210.93171692 622.87974548 C-209.36049828 622.87768349 -209.36049828 622.87768349 -207.75753784 622.87557983 C-206.60883209 622.87917511 -205.46012634 622.88277039 -204.27661133 622.88647461 C-202.46179008 622.88625557 -202.46179008 622.88625557 -200.61030579 622.8860321 C-197.29238309 622.88660981 -193.97452244 622.8916286 -190.65661073 622.89860606 C-187.18926313 622.90485305 -183.72191473 622.90544447 -180.25456238 622.90663147 C-173.68853396 622.90974081 -167.12252218 622.91794886 -160.55650109 622.92798096 C-152.34821746 622.94025027 -144.13993113 622.94572772 -135.93164062 622.95117188 C-121.28774746 622.96091449 -106.64389059 622.98094622 -92 623 C-92 646.43 -92 669.86 -92 694 C-115.43 694 -138.86 694 -163 694 C-163 700.93 -163 707.86 -163 715 C-132.97 715 -102.94 715 -72 715 C-72 521.29 -72 327.58 -72 128 C-87.84 128 -103.68 128 -120 128 C-117.95543566 123.91087132 -115.54342704 121.35476516 -112.3125 118.25 C-108.23244053 114.25721453 -104.34325033 110.20906107 -100.640625 105.859375 C-98.21154675 103.10641965 -95.57986404 100.57096018 -92.96484375 97.99609375 C-91.07769256 96.07892823 -89.31314625 94.10424678 -87.5625 92.0625 C-84.28869347 88.25175937 -80.76636029 84.74921835 -77.19140625 81.22265625 C-74.57898932 78.5729856 -72.16697379 75.78827197 -69.74609375 72.96484375 C-67.27518611 70.18438168 -64.6183306 67.60881782 -61.96875 65 C-60.06013545 63.06108998 -58.27289448 61.06300449 -56.5 59 C-53.48237647 55.48858352 -50.26640919 52.24692598 -46.96875 49 C-45.06013545 47.06108998 -43.27289448 45.06300449 -41.5 43 C-39.10323412 40.21103607 -36.62040609 37.58009215 -34 35 C-31.40017817 32.44009866 -28.93731602 29.8322046 -26.5625 27.0625 C-23.29109667 23.25455671 -19.77163109 19.75435936 -16.19921875 16.23046875 C-13.55009231 13.5436993 -11.0954173 10.72316604 -8.63671875 7.86328125 C-1.72955975 0 -1.72955975 0 0 0 Z " fill="#2C2C2C" transform="translate(236,80)"/>
<path d="M0 0 C1.25554687 -0.00128906 2.51109375 -0.00257812 3.8046875 -0.00390625 C4.46178711 -0.00181152 5.11888672 0.0002832 5.79589844 0.00244141 C7.80411335 0.00779016 9.81210459 0.00249559 11.8203125 -0.00390625 C13.07585937 -0.00261719 14.33140625 -0.00132813 15.625 0 C16.78644531 0.00112793 17.94789063 0.00225586 19.14453125 0.00341797 C21.8125 0.1328125 21.8125 0.1328125 22.8125 1.1328125 C22.90008003 3.13246232 22.91946576 5.1351736 22.91015625 7.13671875 C22.90693359 8.35166016 22.90371094 9.56660156 22.90039062 10.81835938 C22.89201172 12.09775391 22.88363281 13.37714844 22.875 14.6953125 C22.87048828 15.97857422 22.86597656 17.26183594 22.86132812 18.58398438 C22.84949555 21.7669467 22.83155944 24.94988524 22.8125 28.1328125 C29.4125 28.1328125 36.0125 28.1328125 42.8125 28.1328125 C42.8125 18.8928125 42.8125 9.6528125 42.8125 0.1328125 C47.411875 0.1121875 52.01125 0.0915625 56.75 0.0703125 C58.20269287 0.0612085 59.65538574 0.05210449 61.15209961 0.04272461 C62.28655518 0.04022705 63.42101074 0.03772949 64.58984375 0.03515625 C66.34155884 0.02730103 66.34155884 0.02730103 68.12866211 0.01928711 C70.8125 0.1328125 70.8125 0.1328125 71.8125 1.1328125 C71.90008003 3.13246232 71.91946576 5.1351736 71.91015625 7.13671875 C71.90532227 8.95913086 71.90532227 8.95913086 71.90039062 10.81835938 C71.88782227 12.73745117 71.88782227 12.73745117 71.875 14.6953125 C71.87048828 15.97857422 71.86597656 17.26183594 71.86132812 18.58398438 C71.84949555 21.7669467 71.83155944 24.94988524 71.8125 28.1328125 C78.4125 28.1328125 85.0125 28.1328125 91.8125 28.1328125 C91.8125 18.8928125 91.8125 9.6528125 91.8125 0.1328125 C101.3825 0.1328125 110.9525 0.1328125 120.8125 0.1328125 C120.90473579 5.80787573 120.98424941 11.48029976 121.03222656 17.15551758 C121.05224243 19.08269095 121.07946383 21.00980436 121.11425781 22.93676758 C121.16322041 25.71971502 121.18556917 28.50185406 121.203125 31.28515625 C121.22377014 32.13552963 121.24441528 32.98590302 121.26568604 33.86204529 C121.26846072 41.39442951 119.31634515 47.45428048 114.125 53.0078125 C107.33233581 57.36537066 100.63604923 58.58182597 92.671875 58.52099609 C91.37485657 58.52888153 91.37485657 58.52888153 90.05163574 58.53692627 C87.2217346 58.55002243 84.39240587 58.54142527 81.5625 58.53125 C79.57910048 58.53327372 77.59570168 58.53618764 75.61230469 58.53994751 C71.46672441 58.54435681 67.3213388 58.5379848 63.17578125 58.52392578 C57.88003034 58.50683484 52.58473567 58.5166835 47.28900146 58.53464317 C43.1967428 58.54551873 39.1045911 58.54201739 35.0123291 58.5342598 C33.06042425 58.53226821 31.10850947 58.53468019 29.15661621 58.54169846 C26.42185998 58.54937527 23.68782775 58.53762217 20.953125 58.52099609 C19.76052063 58.53010513 19.76052063 58.53010513 18.54382324 58.53939819 C11.49999853 58.46064596 5.49375377 56.80227239 -0.5 53.0703125 C-8.46107098 44.36867678 -7.72603793 33.87569973 -7.54418945 22.77075195 C-7.49959477 20.04554862 -7.48266468 17.32122846 -7.47070312 14.59570312 C-7.45729825 12.86717462 -7.44238064 11.13865703 -7.42578125 9.41015625 C-7.41839432 8.59361069 -7.41100739 7.77706512 -7.40339661 6.93577576 C-7.28371072 -0.04342778 -6.8505857 0.0066529 0 0 Z " fill="#343434" transform="translate(143.1875,1.8671875)"/>
<path d="M0 0 C42.24 0 84.48 0 128 0 C128 9.24 128 18.48 128 28 C127 29 127 29 124.8935461 29.12304783 C123.95792623 29.12212604 123.02230635 29.12120424 122.05833435 29.12025452 C120.98836212 29.12162918 119.91838989 29.12300385 118.81599426 29.12442017 C117.63204575 29.12082489 116.44809723 29.11722961 115.22827148 29.11352539 C113.36999725 29.11374443 113.36999725 29.11374443 111.47418213 29.1139679 C108.06730167 29.11338892 104.66048116 29.10835959 101.25361133 29.10139394 C97.69683174 29.09515993 94.14005142 29.09455656 90.58326721 29.09336853 C83.84363418 29.09025535 77.10401729 29.08204215 70.36439139 29.07201904 C62.69341602 29.06085748 55.02243989 29.05534735 47.35145843 29.05032361 C31.567628 29.03985952 15.78381982 29.02151421 0 29 C0 19.43 0 9.86 0 0 Z " fill="#323232" transform="translate(476,887)"/>
<path d="M0 0 C42.24 0 84.48 0 128 0 C128 9.57 128 19.14 128 29 C111.45852627 29.02254694 94.9170656 29.04097912 78.37558079 29.05181217 C70.69561273 29.05697515 63.01565487 29.06401789 55.33569336 29.07543945 C48.64422011 29.08538623 41.95275424 29.09185341 35.2612738 29.09408849 C31.71604399 29.09539561 28.17083532 29.09848153 24.62561226 29.10573006 C20.67431355 29.1137438 16.7230358 29.11399114 12.77172852 29.11352539 C11.58778 29.11712067 10.40383148 29.12071594 9.18400574 29.12442017 C8.11403351 29.1230455 7.04406128 29.12167084 5.94166565 29.12025452 C4.53823583 29.12163721 4.53823583 29.12163721 3.1064539 29.12304783 C1 29 1 29 0 28 C0 18.76 0 9.52 0 0 Z " fill="#303030" transform="translate(981,795)"/>
<path d="M0 0 C2.96989969 1.33980857 5.08586748 2.82337598 7.4074707 5.10107422 C8.05106033 5.72867645 8.69464996 6.35627869 9.35774231 7.00289917 C10.38142159 8.01853439 10.38142159 8.01853439 11.42578125 9.0546875 C12.13276657 9.75264435 12.83975189 10.4506012 13.56816101 11.16970825 C15.05768135 12.64474044 16.5444223 14.12258388 18.02856445 15.60302734 C20.30942504 17.87194115 22.60826901 20.12153751 24.90820312 22.37109375 C26.35270763 23.80613991 27.79610605 25.24230049 29.23828125 26.6796875 C29.93085526 27.35272919 30.62342926 28.02577087 31.33699036 28.71920776 C31.96481918 29.35311432 32.59264801 29.98702087 33.23950195 30.64013672 C33.79813431 31.19369843 34.35676666 31.74726013 34.93232727 32.31759644 C36 34 36 34 35.86895752 35.99227905 C34.85007451 38.34640191 33.68087003 39.68050872 31.85717773 41.48339844 C31.19656845 42.14378113 30.53595917 42.80416382 29.85533142 43.48455811 C29.13865799 44.18574768 28.42198456 44.88693726 27.68359375 45.609375 C26.95253922 46.33618469 26.22148468 47.06299438 25.46827698 47.81182861 C23.13162843 50.13168401 20.78476516 52.440892 18.4375 54.75 C16.85152964 56.32092443 15.26623457 57.89253094 13.68164062 59.46484375 C9.79556178 63.31784484 5.90104457 67.16215519 2 71 C-1.04581486 69.63886987 -3.13839026 68.10669904 -5.48339844 65.74365234 C-6.47397247 64.75285172 -6.47397247 64.75285172 -7.48455811 63.74203491 C-8.18574768 63.03052277 -8.88693726 62.31901062 -9.609375 61.5859375 C-10.33618469 60.85629791 -11.06299438 60.12665833 -11.81182861 59.37490845 C-14.12929198 57.0462612 -16.4396995 54.71075174 -18.75 52.375 C-20.32115444 50.79381347 -21.89276371 49.21307875 -23.46484375 47.6328125 C-27.31518653 43.7604331 -31.15976117 39.88239829 -35 36 C-30.88670129 31.09526099 -26.61457539 26.4780472 -22.0703125 21.97265625 C-21.43511688 21.33887558 -20.79992126 20.70509491 -20.14547729 20.05210876 C-18.14101284 18.05318594 -16.13307786 16.05779216 -14.125 14.0625 C-12.75497611 12.69749867 -11.38518226 11.3322664 -10.015625 9.96679688 C-6.67973457 6.64185789 -3.34072964 3.32007647 0 0 Z " fill="#303030" transform="translate(539,795)"/>
</svg>
