<svg width="40" height="39" viewBox="0 0 40 39" fill="none" xmlns="http://www.w3.org/2000/svg">
<path d="M13.3333 16.25C12.8731 16.25 12.5 16.6138 12.5 17.0625C12.5 17.5112 12.8731 17.875 13.3333 17.875H19.1667C19.6269 17.875 20 17.5112 20 17.0625C20 16.6138 19.6269 16.25 19.1667 16.25H13.3333Z" fill="#727272"/>
<path d="M12.5 13C12.5 12.5513 12.8731 12.1875 13.3333 12.1875H26.25C26.7102 12.1875 27.0833 12.5513 27.0833 13C27.0833 13.4487 26.7102 13.8125 26.25 13.8125H13.3333C12.8731 13.8125 12.5 13.4487 12.5 13Z" fill="#727272"/>
<path fill-rule="evenodd" clip-rule="evenodd" d="M12.5 22.75C12.5 22.3013 12.8731 21.9375 13.3333 21.9375H16.6667C17.1269 21.9375 17.5 22.3013 17.5 22.75V26C17.5 26.4487 17.1269 26.8125 16.6667 26.8125H13.3333C12.8731 26.8125 12.5 26.4487 12.5 26V22.75ZM14.1667 25.1875V23.5625H15.8333V25.1875H14.1667Z" fill="#727272"/>
<path fill-rule="evenodd" clip-rule="evenodd" d="M23.3333 25.1875C24.7145 25.1875 25.8333 24.0967 25.8333 22.75C25.8333 21.4033 24.7145 20.3125 23.3333 20.3125C21.952 20.3125 20.8333 21.4033 20.8333 22.75C20.8333 24.0967 21.952 25.1875 23.3333 25.1875ZM23.3333 23.5625C23.794 23.5625 24.1666 23.1992 24.1666 22.75C24.1666 22.3008 23.794 21.9375 23.3333 21.9375C22.8725 21.9375 22.4999 22.3008 22.4999 22.75C22.4999 23.1992 22.8725 23.5625 23.3333 23.5625Z" fill="#727272"/>
<path fill-rule="evenodd" clip-rule="evenodd" d="M18.3333 28.5852C18.3333 26.866 21.6645 26 23.3333 26C25.002 26 28.3333 26.866 28.3333 28.5852V31.6875H18.3333V28.5852ZM20.0457 28.6172C20.0253 28.6366 20.0105 28.6524 19.9999 28.6644V30.0625H26.6666V28.6644C26.656 28.6524 26.6412 28.6366 26.6208 28.6172C26.4844 28.4871 26.2205 28.3146 25.8073 28.1435C24.974 27.7983 23.9459 27.625 23.3333 27.625C22.7206 27.625 21.6925 27.7983 20.8593 28.1435C20.446 28.3146 20.1821 28.4871 20.0457 28.6172Z" fill="#727272"/>
<path fill-rule="evenodd" clip-rule="evenodd" d="M14.1666 5.6875C14.1666 4.34131 15.2858 3.25 16.6666 3.25H23.3333C24.714 3.25 25.8333 4.34131 25.8333 5.6875H29.1666C30.5473 5.6875 31.6666 6.7788 31.6666 8.125V33.3125C31.6666 34.6587 30.5473 35.75 29.1666 35.75H10.8333C9.4525 35.75 8.33325 34.6587 8.33325 33.3125V8.125C8.33325 6.77881 9.4525 5.6875 10.8333 5.6875H14.1666ZM23.3333 9.75C24.714 9.75 25.8333 8.65873 25.8333 7.3125H29.1666C29.6268 7.3125 29.9999 7.67627 29.9999 8.125V33.3125C29.9999 33.7612 29.6268 34.125 29.1666 34.125H10.8333C10.373 34.125 9.99992 33.7612 9.99992 33.3125V8.125C9.99992 7.67627 10.373 7.3125 10.8333 7.3125H14.1666C14.1666 8.65873 15.2858 9.75 16.6666 9.75H23.3333ZM16.6666 4.875C16.2063 4.875 15.8333 5.23877 15.8333 5.6875V7.3125C15.8333 7.76123 16.2063 8.125 16.6666 8.125H23.3333C23.7935 8.125 24.1666 7.76123 24.1666 7.3125V5.6875C24.1666 5.23877 23.7935 4.875 23.3333 4.875H16.6666Z" fill="#727272"/>
</svg>
