<svg width="72" height="72" viewBox="0 0 72 72" fill="none" xmlns="http://www.w3.org/2000/svg">
<rect width="72" height="72" rx="10" fill="#EBF7F7"/>
<path d="M31.8942 11.18L29.6588 12.452L27.8304 9.17065L23.8854 11.3366L25.7472 14.6778L23.4848 15.9651L25.0767 18.7224C23.9492 20.122 23.7375 22.124 24.6975 23.7747L25.5907 25.3105C21.4608 27.688 18.2799 30.5279 16.502 34.0581C14.7878 37.4618 14.4633 41.3346 15.6054 45.7257C12.4755 48.4748 10.5 52.5064 10.5 56.9995C10.5 59.133 10.9453 61.1622 11.7481 62.9995H60C60.8285 62.9995 61.5 62.328 61.5 61.4995C61.5 60.6712 60.8285 59.9995 60 59.9995H40.2C40.3967 59.0302 40.5 58.027 40.5 56.9995C40.5 54.6948 39.9803 52.5114 39.0515 50.5604L57.1146 40.3811L55.6254 37.7767L37.5054 47.988L38.9945 50.5921L29.2233 56.0987L27.7343 53.4943L37.4963 47.9931C34.7592 44.3535 30.4046 41.9995 25.5 41.9995C22.8717 41.9995 20.4014 42.6756 18.2532 43.8632C17.5911 40.5464 17.9845 37.7838 19.1814 35.4075C20.6034 32.584 23.2545 30.115 27.0989 27.9039L31.4816 35.44C32.7309 37.5883 35.4917 38.3282 37.6479 37.0923L38.6487 36.5187L39.5624 38.2846L43.5732 36.2411L42.5576 34.2782L43.8303 33.5487C45.9864 32.3129 46.7216 29.5693 45.4722 27.4209L38.6882 15.7555C37.5969 13.8791 35.3526 13.0773 33.3653 13.7279L31.8942 11.18Z" fill="#2DE5E6"/>
</svg>
