<svg width="41" height="44" viewBox="0 0 41 44" fill="none" xmlns="http://www.w3.org/2000/svg">
<g clip-path="url(#clip0_13_73)">
<path d="M30.75 14.6667C30.75 11.7493 29.6701 8.95141 27.7478 6.88851C25.8256 4.82561 23.2185 3.66669 20.5 3.66669C17.7815 3.66669 15.1744 4.82561 13.2522 6.88851C11.3299 8.95141 10.25 11.7493 10.25 14.6667C10.25 27.5 5.125 31.1667 5.125 31.1667H35.875C35.875 31.1667 30.75 27.5 30.75 14.6667Z" stroke="#2B2B2B" stroke-width="2" stroke-linecap="round" stroke-linejoin="round"/>
<path d="M23.4555 38.5C23.1552 39.0556 22.7241 39.5169 22.2054 39.8375C21.6867 40.1581 21.0987 40.3268 20.5001 40.3268C19.9015 40.3268 19.3135 40.1581 18.7948 39.8375C18.2761 39.5169 17.845 39.0556 17.5447 38.5" stroke="#2B2B2B" stroke-width="2" stroke-linecap="round" stroke-linejoin="round"/>
<rect x="21" y="-1" width="21" height="18" rx="9" fill="#FE2C55"/>
<rect x="21" y="-1" width="21" height="18" rx="9" stroke="white" stroke-width="2"/>
<path d="M31.5107 12.0994C31.0372 12.0994 30.6134 12.0107 30.2393 11.8331C29.8653 11.6532 29.5682 11.407 29.348 11.0945C29.1302 10.782 29.0142 10.4245 29 10.022H30.2784C30.3021 10.3203 30.4311 10.5642 30.6655 10.7536C30.8999 10.9406 31.1816 11.0341 31.5107 11.0341C31.7687 11.0341 31.9983 10.9749 32.1996 10.8565C32.4008 10.7382 32.5594 10.5736 32.6754 10.3629C32.7914 10.1522 32.8482 9.91193 32.8459 9.64205C32.8482 9.36742 32.7902 9.12358 32.6719 8.91051C32.5535 8.69744 32.3913 8.53054 32.1854 8.4098C31.9794 8.28669 31.7427 8.22514 31.4751 8.22514C31.2573 8.22277 31.0431 8.26302 30.8324 8.34588C30.6217 8.42874 30.4548 8.53764 30.3317 8.67259L29.142 8.47727L29.522 4.72727H33.7408V5.82812H30.6122L30.4027 7.75639H30.4453C30.5803 7.59777 30.7708 7.46638 31.017 7.36222C31.2633 7.25568 31.5331 7.20241 31.8267 7.20241C32.267 7.20241 32.66 7.30658 33.0057 7.51491C33.3513 7.72088 33.6236 8.00497 33.8224 8.36719C34.0213 8.7294 34.1207 9.1437 34.1207 9.61009C34.1207 10.0907 34.0095 10.5192 33.7869 10.8956C33.5668 11.2696 33.2602 11.5644 32.8672 11.7798C32.4766 11.9929 32.0244 12.0994 31.5107 12.0994Z" fill="white"/>
</g>
<defs>
<clipPath id="clip0_13_73">
<rect width="41" height="44" rx="10" fill="white"/>
</clipPath>
</defs>
</svg>
