<svg width="220" height="220" viewBox="0 0 220 220" fill="none" xmlns="http://www.w3.org/2000/svg">
<path fill-rule="evenodd" clip-rule="evenodd" d="M109.81 119.167C135.065 119.167 155.538 98.6462 155.538 73.3333C155.538 48.0205 135.065 27.5 109.81 27.5C84.5551 27.5 64.0823 48.0205 64.0823 73.3333C64.0823 98.6462 84.5551 119.167 109.81 119.167ZM109.81 110C130.014 110 146.393 93.5839 146.393 73.3333C146.393 53.0828 130.014 36.6667 109.81 36.6667C89.6064 36.6667 73.2279 53.0828 73.2279 73.3333C73.2279 93.5839 89.6064 110 109.81 110Z" fill="#2B2B2B"/>
<path d="M66.0605 153.274C62.1308 155.692 59.5095 160.039 59.5095 165C59.5095 172.594 65.6517 178.75 73.2279 178.75C80.8042 178.75 86.9463 172.594 86.9463 165C86.9463 158.015 81.7497 152.246 75.02 151.366C74.8701 150.828 74.7138 150.207 74.5548 149.511C74.0066 147.112 73.4837 144.069 73.0945 140.943C72.705 137.811 72.463 134.706 72.4469 132.172C72.441 131.243 72.4662 130.433 72.517 129.755C74.2766 129.249 76.0407 128.793 77.8007 128.391C79.8188 127.93 81.0132 130.318 81.9807 132.253C82.1155 132.522 82.2461 132.782 82.3735 133.025H100.957C105.117 133.024 107.187 133.025 109.268 133.025H109.344C111.378 133.026 113.449 133.026 117.516 133.025H128.101V192.5H27.5V167.612C27.5 153.714 44.0074 140.479 63.3096 132.885C63.3614 135.734 63.6309 138.958 64.0195 142.078C64.4385 145.445 65.01 148.799 65.6398 151.557C65.775 152.147 65.9152 152.723 66.0605 153.274Z" fill="#2B2B2B"/>
<path d="M73.2279 169.651C75.6901 169.651 77.8007 167.632 77.8007 165C77.8007 162.368 75.6901 160.349 73.2279 160.349C70.7658 160.349 68.6552 162.368 68.6552 165C68.6552 167.632 70.7658 169.651 73.2279 169.651Z" fill="#2B2B2B"/>
<path fill-rule="evenodd" clip-rule="evenodd" d="M179.545 119.167C179.545 116.635 177.498 114.583 174.972 114.583C172.447 114.583 170.4 116.635 170.4 119.167V120.264H160.111V119.167C160.111 116.635 158.064 114.583 155.538 114.583C153.013 114.583 150.965 116.635 150.965 119.167V120.264H145.821C141.086 120.264 137.247 124.112 137.247 128.858V183.906C137.247 188.652 141.086 192.5 145.821 192.5H183.926C188.661 192.5 192.5 188.652 192.5 183.906V128.858C192.5 124.112 188.661 120.264 183.926 120.264H179.545V119.167ZM176.239 143.926C177.759 142.593 177.913 140.277 176.582 138.753C175.252 137.229 172.941 137.074 171.421 138.407L160.84 147.687L158.031 145.066C156.552 143.686 154.237 143.769 152.861 145.251C151.484 146.734 151.567 149.054 153.046 150.433L158.242 155.281C159.632 156.578 161.775 156.611 163.205 155.358L176.239 143.926ZM176.238 163.405C177.759 162.072 177.913 159.755 176.582 158.231C175.252 156.707 172.941 156.553 171.42 157.886L160.84 167.166L158.031 164.544C156.552 163.165 154.237 163.248 152.861 164.73C151.484 166.212 151.567 168.532 153.046 169.912L158.241 174.76C159.631 176.057 161.775 176.09 163.204 174.836L176.238 163.405Z" fill="#2B2B2B"/>
</svg>
