<svg width="220" height="220" viewBox="0 0 220 220" fill="none" xmlns="http://www.w3.org/2000/svg">
<path fill-rule="evenodd" clip-rule="evenodd" d="M146.499 29.0524L73.1665 29.1124C70.6351 29.1145 68.5845 31.1682 68.5868 33.6995L68.7143 189.533C68.7165 192.064 70.7703 194.114 73.3013 194.112L146.635 194.052C149.166 194.05 151.217 191.996 151.214 189.465L151.087 33.6319C151.085 31.1006 149.031 29.0502 146.499 29.0524ZM73.1587 19.9457C65.565 19.952 59.4138 26.1131 59.4202 33.707L59.5476 189.54C59.554 197.134 65.7149 203.285 73.309 203.279L146.642 203.219C154.236 203.213 160.387 197.052 160.381 189.458L160.254 33.6244C160.247 26.0305 154.086 19.8795 146.492 19.8857L73.1587 19.9457Z" fill="#2B2B2B"/>
<path fill-rule="evenodd" clip-rule="evenodd" d="M77.7535 33.6924C75.2221 33.6945 73.172 35.7482 73.1738 38.2795L73.2751 162.03C73.2774 164.561 75.3312 166.611 77.8621 166.609L142.029 166.556C144.56 166.554 146.611 164.501 146.608 161.969L146.507 38.2194C146.505 35.6881 144.452 33.6378 141.92 33.6398L77.7535 33.6924ZM106.297 126.223L109.917 129.233L113.529 126.243L113.603 126.181C120.841 120.154 126.795 115.196 130.949 110.539C135.11 105.874 137.393 101.589 137.389 96.9237C137.383 89.3324 130.868 83.3823 122.57 83.3892C117.876 83.3928 113.361 85.399 110.419 88.5651L109.883 89.1422L109.346 88.566C106.398 85.4045 101.88 83.4061 97.1859 83.4098C88.8878 83.4167 82.3831 89.3777 82.3891 96.9687C82.3927 101.634 84.6835 105.915 88.8516 110.57C93.0279 115.233 99.0151 120.192 106.297 126.223Z" fill="#2B2B2B"/>
<path fill-rule="evenodd" clip-rule="evenodd" d="M109.965 189.499C115.028 189.495 119.128 185.388 119.124 180.325C119.12 175.263 115.012 171.162 109.95 171.166C104.887 171.17 100.786 175.278 100.791 180.34C100.795 185.403 104.902 189.503 109.965 189.499Z" fill="#2B2B2B"/>
</svg>
