<svg width="220" height="220" viewBox="0 0 220 220" fill="none" xmlns="http://www.w3.org/2000/svg">
<path d="M83.8983 59.5833C83.6375 52.2023 83.846 44.3892 86.4475 38.2851C87.8152 35.0769 89.7929 32.4804 92.652 30.6462C95.5275 28.8013 99.6512 27.5 105.681 27.5C112.441 27.5 118.078 29.9564 122.108 32.5152C124.113 33.7883 125.676 35.0593 126.724 35.9981C127.246 36.4661 127.636 36.8473 127.884 37.0988C128.007 37.2245 128.095 37.3173 128.146 37.372L128.191 37.4202L128.194 37.4237C129.875 39.3101 132.766 39.4814 134.657 37.8046C136.551 36.1253 136.725 33.2285 135.046 31.3344L131.679 34.3194C135.046 31.3344 135.041 31.3287 135.041 31.3287L135.035 31.322L135.02 31.3053L134.979 31.2596C134.946 31.2238 134.903 31.1771 134.851 31.1205C134.745 31.0074 134.6 30.8541 134.414 30.6664C134.045 30.2914 133.518 29.7773 132.841 29.1711C131.491 27.9615 129.528 26.3679 127.021 24.7765C122.028 21.6061 114.697 18.3333 105.681 18.3333C98.3211 18.3333 92.376 19.9325 87.7024 22.9307C83.0118 25.9396 79.9593 30.1288 78.0151 34.691C74.6294 42.6351 74.4658 52.0992 74.7243 59.5833H50.4152C47.8838 59.5833 45.8047 61.6444 46.0926 64.1593C48.9155 88.814 74.3278 108.352 105.945 109.901V146.667H115.111V109.842C123.045 109.351 130.574 107.725 137.434 105.172C137.478 105.695 137.5 106.238 137.5 106.805C137.5 110.3 134.645 114.48 128.785 118.11C125.861 119.92 122.527 121.366 119.167 122.341V131.81C124.245 130.635 129.294 128.577 133.611 125.903C140.355 121.726 146.667 115.142 146.667 106.805C146.667 104.926 146.493 103.069 146.104 101.267C161.535 92.9999 172.139 79.5804 173.904 64.1593C174.193 61.6444 172.113 59.5833 169.582 59.5833H83.8983Z" fill="#2B2B2B"/>
<path d="M137.5 178.75C137.5 184.09 135.853 188.779 132.83 192.5H146.666V201.667H73.3325V192.5L105.945 192.5V174.167H115.111V192.106C118.787 191.505 121.69 190.253 123.783 188.609C126.645 186.361 128.333 183.127 128.333 178.75C128.333 174.372 126.645 171.139 123.783 168.89C120.799 166.546 116.167 165 110 165C103.048 165 95.3325 164.451 89.2326 161.74C86.0985 160.347 83.2046 158.305 81.1086 155.31C78.9906 152.284 77.9168 148.613 77.9168 144.375C77.9168 140.136 78.9906 136.465 81.1086 133.439C83.2046 130.445 86.0985 128.402 89.2326 127.009C92.7196 125.46 96.7346 124.616 100.833 124.179V133.407C97.8158 133.787 95.1405 134.415 92.9551 135.386C90.933 136.285 89.53 137.393 88.6184 138.696C87.7283 139.967 87.0834 141.738 87.0834 144.375C87.0834 147.011 87.7283 148.782 88.6184 150.054C89.53 151.356 90.933 152.465 92.9551 153.363C97.1677 155.236 103.202 155.833 110 155.833C117.583 155.833 124.409 157.724 129.446 161.682C134.605 165.736 137.5 171.669 137.5 178.75Z" fill="#2B2B2B"/>
</svg>
