<svg width="35" height="35" viewBox="0 0 35 35" fill="none" xmlns="http://www.w3.org/2000/svg">
<path fill-rule="evenodd" clip-rule="evenodd" d="M2.97485 13.2867L13.2868 2.97473L18.9584 8.64633L8.64645 18.9583L2.97485 13.2867ZM5.03725 13.2867L8.64645 16.8959L16.896 8.64633L13.2868 5.03713L5.03725 13.2867Z" fill="#2B2B2B"/>
<path fill-rule="evenodd" clip-rule="evenodd" d="M8.64648 16.8959L16.8961 8.64636L29.786 21.5364C32.0641 23.8143 32.0641 27.5079 29.786 29.7859C27.508 32.064 23.8145 32.064 21.5365 29.7859L8.64648 16.8959ZM10.7089 16.8959L22.5677 28.7547C24.2762 30.4633 27.0463 30.4633 28.7548 28.7547C30.4634 27.0462 30.4634 24.2761 28.7548 22.5675L16.8961 10.7087L10.7089 16.8959Z" fill="#2B2B2B"/>
<path fill-rule="evenodd" clip-rule="evenodd" d="M14.3179 17.4116L19.9894 11.74L28.7546 20.5052L23.083 26.1768L14.3179 17.4116ZM16.3802 17.4116L23.083 24.1144L26.6922 20.5052L19.9894 13.8024L16.3802 17.4116Z" fill="#2B2B2B"/>
<path fill-rule="evenodd" clip-rule="evenodd" d="M6.0683 10.1931L11.4821 15.6069L10.4509 16.6381L5.03711 11.2243L6.0683 10.1931Z" fill="#2B2B2B"/>
<path fill-rule="evenodd" clip-rule="evenodd" d="M8.64642 7.61523L14.0602 13.029L13.029 14.0602L7.61523 8.64642L8.64642 7.61523Z" fill="#2B2B2B"/>
<path fill-rule="evenodd" clip-rule="evenodd" d="M11.2243 5.03723L16.6381 10.451L15.6069 11.4822L10.1931 6.06843L11.2243 5.03723Z" fill="#2B2B2B"/>
<path fill-rule="evenodd" clip-rule="evenodd" d="M18.6682 23.5021C18.2024 23.9679 17.9183 24.3839 17.8454 24.6027L16.4619 24.1415C16.6468 23.5869 17.1361 22.9718 17.637 22.4709C18.1562 21.9517 18.7987 21.4454 19.4055 21.142L20.0577 22.4463C19.6334 22.6585 19.1158 23.0545 18.6682 23.5021Z" fill="#2B2B2B"/>
</svg>
