<svg width="40" height="39" viewBox="0 0 40 39" fill="none" xmlns="http://www.w3.org/2000/svg">
<path d="M19.9999 18.6875H8.33325V17.0625H19.9999V18.6875Z" fill="#727272"/>
<path d="M8.33325 15.4375H19.9999V13.8125H8.33325V15.4375Z" fill="#727272"/>
<path d="M19.9999 21.9375H8.33325V20.3125H19.9999V21.9375Z" fill="#727272"/>
<path d="M8.33325 25.1875H19.9999V23.5625H8.33325V25.1875Z" fill="#727272"/>
<path d="M23.3333 22.2947C23.3333 21.2693 24.2954 20.5002 25.3268 20.7013L27.1731 21.0613C27.3888 21.1034 27.611 21.1034 27.8268 21.0613L29.6731 20.7013C30.7044 20.5002 31.6666 21.2693 31.6666 22.2947V26H23.3333V22.2947Z" fill="#727272"/>
<path d="M27.5001 19.5C29.341 19.5 30.8334 18.0449 30.8334 16.25C30.8334 14.4551 29.341 13 27.5001 13C25.6592 13 24.1667 14.4551 24.1667 16.25C24.1667 18.0449 25.6592 19.5 27.5001 19.5Z" fill="#727272"/>
<path fill-rule="evenodd" clip-rule="evenodd" d="M5.83325 8.125C4.45254 8.125 3.33325 9.21627 3.33325 10.5625V28.4375C3.33325 29.7837 4.45254 30.875 5.83325 30.875H34.1666C35.5473 30.875 36.6666 29.7837 36.6666 28.4375V10.5625C36.6666 9.21627 35.5473 8.125 34.1666 8.125H5.83325ZM34.1666 9.75H5.83325C5.37302 9.75 4.99992 10.1138 4.99992 10.5625V28.4375C4.99992 28.8862 5.37302 29.25 5.83325 29.25H34.1666C34.6268 29.25 34.9999 28.8862 34.9999 28.4375V10.5625C34.9999 10.1138 34.6268 9.75 34.1666 9.75Z" fill="#727272"/>
</svg>
