<svg width="31" height="28" viewBox="0 0 31 28" fill="none" xmlns="http://www.w3.org/2000/svg">
<g clip-path="url(#clip0_17_81)">
<path d="M15.5 17.5C17.6401 17.5 19.375 15.933 19.375 14C19.375 12.067 17.6401 10.5 15.5 10.5C13.3599 10.5 11.625 12.067 11.625 14C11.625 15.933 13.3599 17.5 15.5 17.5Z" stroke="#727272" stroke-width="2" stroke-linecap="round" stroke-linejoin="round"/>
<path d="M25.0584 17.5C24.8865 17.8518 24.8352 18.2422 24.9112 18.6206C24.9871 18.9991 25.1869 19.3483 25.4847 19.6233L25.5622 19.6933C25.8024 19.91 25.9929 20.1673 26.1229 20.4506C26.2529 20.7339 26.3198 21.0375 26.3198 21.3441C26.3198 21.6508 26.2529 21.9544 26.1229 22.2377C25.9929 22.5209 25.8024 22.7783 25.5622 22.995C25.3222 23.2119 25.0373 23.384 24.7237 23.5014C24.4101 23.6189 24.0739 23.6793 23.7345 23.6793C23.395 23.6793 23.0588 23.6189 22.7452 23.5014C22.4316 23.384 22.1467 23.2119 21.9067 22.995L21.8292 22.925C21.5248 22.656 21.1382 22.4756 20.7192 22.407C20.3002 22.3383 19.868 22.3847 19.4784 22.54C19.0964 22.6878 18.7706 22.9334 18.5411 23.2464C18.3116 23.5594 18.1884 23.9262 18.1867 24.3016V24.5C18.1867 25.1188 17.9146 25.7123 17.4301 26.1499C16.9456 26.5875 16.2886 26.8333 15.6034 26.8333C14.9183 26.8333 14.2612 26.5875 13.7767 26.1499C13.2923 25.7123 13.0201 25.1188 13.0201 24.5V24.395C13.0101 24.0088 12.8717 23.6343 12.6229 23.3201C12.3741 23.0059 12.0264 22.7666 11.6251 22.6333C11.2355 22.478 10.8033 22.4317 10.3843 22.5003C9.96531 22.5689 9.57867 22.7493 9.27425 23.0183L9.19675 23.0883C8.95683 23.3052 8.67191 23.4773 8.3583 23.5948C8.04469 23.7122 7.70853 23.7726 7.36904 23.7726C7.02955 23.7726 6.69339 23.7122 6.37978 23.5948C6.06617 23.4773 5.78125 23.3052 5.54133 23.0883C5.30114 22.8716 5.1106 22.6142 4.98059 22.331C4.85059 22.0477 4.78367 21.7441 4.78367 21.4375C4.78367 21.1308 4.85059 20.8272 4.98059 20.5439C5.1106 20.2607 5.30114 20.0033 5.54133 19.7866L5.61883 19.7166C5.91661 19.4417 6.11636 19.0924 6.19234 18.714C6.26831 18.3355 6.21702 17.9452 6.04508 17.5933C5.88135 17.2482 5.60947 16.9539 5.26293 16.7466C4.91639 16.5394 4.51031 16.4281 4.09466 16.4266H3.87508C3.18994 16.4266 2.53286 16.1808 2.04839 15.7432C1.56392 15.3056 1.29175 14.7121 1.29175 14.0933C1.29175 13.4745 1.56392 12.881 2.04839 12.4434C2.53286 12.0058 3.18994 11.76 3.87508 11.76H3.99133C4.41887 11.7509 4.8335 11.6259 5.18134 11.4012C5.52918 11.1765 5.79413 10.8625 5.94175 10.5C6.11369 10.1481 6.16498 9.75773 6.089 9.37927C6.01303 9.00081 5.81327 8.65158 5.5155 8.37662L5.438 8.30662C5.19781 8.08992 5.00726 7.83258 4.87726 7.54932C4.74726 7.26606 4.68034 6.96243 4.68034 6.65579C4.68034 6.34916 4.74726 6.04553 4.87726 5.76226C5.00726 5.479 5.19781 5.22166 5.438 5.00496C5.67792 4.78801 5.96283 4.61591 6.27644 4.49849C6.59006 4.38106 6.92622 4.32062 7.26571 4.32062C7.6052 4.32062 7.94136 4.38106 8.25497 4.49849C8.56858 4.61591 8.85349 4.78801 9.09341 5.00496L9.17091 5.07496C9.47533 5.34392 9.86198 5.52434 10.281 5.59296C10.7 5.66159 11.1322 5.61526 11.5217 5.45996H11.6251C12.0071 5.31207 12.3329 5.06651 12.5624 4.7535C12.7919 4.4405 12.9151 4.07371 12.9167 3.69829V3.49996C12.9167 2.88112 13.1889 2.28763 13.6734 1.85004C14.1579 1.41246 14.8149 1.16663 15.5001 1.16663C16.1852 1.16663 16.8423 1.41246 17.3268 1.85004C17.8112 2.28763 18.0834 2.88112 18.0834 3.49996V3.60496C18.0851 3.98038 18.2082 4.34716 18.4377 4.66017C18.6672 4.97317 18.993 5.21874 19.3751 5.36663C19.7647 5.52193 20.1968 5.56825 20.6158 5.49963C21.0349 5.43101 21.4215 5.25059 21.7259 4.98163L21.8034 4.91163C22.0433 4.69468 22.3282 4.52258 22.6419 4.40515C22.9555 4.28773 23.2916 4.22729 23.6311 4.22729C23.9706 4.22729 24.3068 4.28773 24.6204 4.40515C24.934 4.52258 25.2189 4.69468 25.4588 4.91163C25.699 5.12833 25.8896 5.38567 26.0196 5.66893C26.1496 5.95219 26.2165 6.25582 26.2165 6.56246C26.2165 6.86909 26.1496 7.17272 26.0196 7.45599C25.8896 7.73925 25.699 7.99659 25.4588 8.21329L25.3813 8.28329C25.0836 8.55825 24.8838 8.90748 24.8078 9.28594C24.7319 9.6644 24.7831 10.0547 24.9551 10.4066V10.5C25.1188 10.845 25.3907 11.1393 25.7372 11.3466C26.0838 11.5539 26.4899 11.6651 26.9055 11.6666H27.1251C27.8102 11.6666 28.4673 11.9125 28.9518 12.35C29.4362 12.7876 29.7084 13.3811 29.7084 14C29.7084 14.6188 29.4362 15.2123 28.9518 15.6499C28.4673 16.0875 27.8102 16.3333 27.1251 16.3333H27.0088C26.5932 16.3348 26.1871 16.446 25.8406 16.6533C25.494 16.8606 25.2221 17.1549 25.0584 17.5Z" stroke="#727272" stroke-width="2" stroke-linecap="round" stroke-linejoin="round"/>
</g>
<defs>
<clipPath id="clip0_17_81">
<rect width="31" height="28" fill="white"/>
</clipPath>
</defs>
</svg>
