<svg width="34" height="34" viewBox="0 0 34 34" fill="none" xmlns="http://www.w3.org/2000/svg">
<path fill-rule="evenodd" clip-rule="evenodd" d="M12.0416 17.7083H10.6249V19.125H12.0416V17.7083ZM10.6249 16.2916C9.84249 16.2916 9.20825 16.9259 9.20825 17.7083V19.125C9.20825 19.9074 9.84249 20.5416 10.6249 20.5416H12.0416C12.824 20.5416 13.4583 19.9074 13.4583 19.125V17.7083C13.4583 16.9259 12.824 16.2916 12.0416 16.2916H10.6249Z" fill="#2B2B2B"/>
<path fill-rule="evenodd" clip-rule="evenodd" d="M17.7083 17.7083H16.2917V19.125H17.7083V17.7083ZM16.2917 16.2916C15.5092 16.2916 14.875 16.9259 14.875 17.7083V19.125C14.875 19.9074 15.5092 20.5416 16.2917 20.5416H17.7083C18.4908 20.5416 19.125 19.9074 19.125 19.125V17.7083C19.125 16.9259 18.4908 16.2916 17.7083 16.2916H16.2917Z" fill="#2B2B2B"/>
<path fill-rule="evenodd" clip-rule="evenodd" d="M23.3751 17.7083H21.9584V19.125H23.3751V17.7083ZM21.9584 16.2916C21.176 16.2916 20.5417 16.9259 20.5417 17.7083V19.125C20.5417 19.9074 21.176 20.5416 21.9584 20.5416H23.3751C24.1575 20.5416 24.7917 19.9074 24.7917 19.125V17.7083C24.7917 16.9259 24.1575 16.2916 23.3751 16.2916H21.9584Z" fill="#2B2B2B"/>
<path fill-rule="evenodd" clip-rule="evenodd" d="M12.0416 23.375H10.6249V24.7917H12.0416V23.375ZM10.6249 21.9584C9.84249 21.9584 9.20825 22.5926 9.20825 23.375V24.7917C9.20825 25.5741 9.84249 26.2084 10.6249 26.2084H12.0416C12.824 26.2084 13.4583 25.5741 13.4583 24.7917V23.375C13.4583 22.5926 12.824 21.9584 12.0416 21.9584H10.6249Z" fill="#2B2B2B"/>
<path fill-rule="evenodd" clip-rule="evenodd" d="M17.7083 23.375H16.2917V24.7917H17.7083V23.375ZM16.2917 21.9584C15.5092 21.9584 14.875 22.5926 14.875 23.375V24.7917C14.875 25.5741 15.5092 26.2084 16.2917 26.2084H17.7083C18.4908 26.2084 19.125 25.5741 19.125 24.7917V23.375C19.125 22.5926 18.4908 21.9584 17.7083 21.9584H16.2917Z" fill="#2B2B2B"/>
<path fill-rule="evenodd" clip-rule="evenodd" d="M23.3751 23.375H21.9584V24.7917H23.3751V23.375ZM21.9584 21.9584C21.176 21.9584 20.5417 22.5926 20.5417 23.375V24.7917C20.5417 25.5741 21.176 26.2084 21.9584 26.2084H23.3751C24.1575 26.2084 24.7917 25.5741 24.7917 24.7917V23.375C24.7917 22.5926 24.1575 21.9584 23.3751 21.9584H21.9584Z" fill="#2B2B2B"/>
<path fill-rule="evenodd" clip-rule="evenodd" d="M7.08325 7.79167C6.69205 7.79167 6.37492 8.10879 6.37492 8.5V27.625C6.37492 28.0162 6.69205 28.3333 7.08325 28.3333H26.9166C27.3068 28.3333 27.6249 28.0156 27.6249 27.6234V8.50156C27.6249 8.10935 27.3068 7.79167 26.9166 7.79167H24.7916V6.375H26.9166C28.0912 6.375 29.0416 7.32891 29.0416 8.50156V27.6234C29.0416 28.7961 28.0912 29.75 26.9166 29.75H7.08325C5.90965 29.75 4.95825 28.7986 4.95825 27.625V8.5C4.95825 7.32636 5.90965 6.375 7.08325 6.375H10.6249V7.79167H7.08325ZM21.9583 7.79167H13.4583V6.375H21.9583V7.79167Z" fill="#2B2B2B"/>
<path fill-rule="evenodd" clip-rule="evenodd" d="M27.625 14.1667H6.375V12.75H27.625V14.1667Z" fill="#2B2B2B"/>
<path d="M10.625 4.95833C10.625 4.56713 10.9421 4.25 11.3333 4.25C11.7245 4.25 12.0417 4.56713 12.0417 4.95833V9.91667C12.0417 10.3079 11.7245 10.625 11.3333 10.625C10.9421 10.625 10.625 10.3079 10.625 9.91667V4.95833Z" fill="#2B2B2B"/>
<path d="M21.9583 4.95833C21.9583 4.56713 22.2754 4.25 22.6666 4.25C23.0578 4.25 23.3749 4.56713 23.3749 4.95833V9.91667C23.3749 10.3079 23.0578 10.625 22.6666 10.625C22.2754 10.625 21.9583 10.3079 21.9583 9.91667V4.95833Z" fill="#2B2B2B"/>
</svg>
