<svg width="33" height="32" viewBox="0 0 33 32" fill="none" xmlns="http://www.w3.org/2000/svg">
<rect width="33" height="32" rx="11" fill="#2DE5E6" fill-opacity="0.9"/>
<path d="M8.24994 6.66667C9.00936 6.66667 9.62494 6.06971 9.62494 5.33333C9.62494 4.59695 9.00936 4 8.24994 4C7.74099 4 7.29666 4.26813 7.05892 4.66667H6.87494C5.73586 4.66667 4.81244 5.5621 4.81244 6.66667V12.6667C4.43277 12.6667 4.12172 12.9658 4.15618 13.3325C4.31601 15.0333 5.08447 16.6347 6.33997 17.8521C7.26063 18.7449 8.39418 19.3837 9.62494 19.722V21.3333C9.62494 22.2043 10.199 22.9451 11.0002 23.2196C11.0295 25.8646 13.2498 28 15.9843 28C18.7371 28 20.9687 25.8361 20.9687 23.1667V20.5C20.9687 19.1193 22.1229 18 23.5468 18C24.9707 18 26.1249 19.1193 26.1249 20.5V22.1138C25.3239 22.3883 24.7499 23.1292 24.7499 24C24.7499 25.1046 25.6733 26 26.8124 26C27.9516 26 28.8749 25.1046 28.8749 24C28.8749 23.1292 28.301 22.3883 27.4999 22.1138V20.5C27.4999 18.3829 25.73 16.6667 23.5468 16.6667C21.3636 16.6667 19.5937 18.3829 19.5937 20.5V23.1667C19.5937 25.0997 17.9777 26.6667 15.9843 26.6667C14.0091 26.6667 12.4044 25.1281 12.3754 23.2194C13.1762 22.9447 13.7499 22.204 13.7499 21.3333V19.722C14.9807 19.3837 16.1143 18.7449 17.035 17.8521C18.2905 16.6347 19.0589 15.0333 19.2187 13.3325C19.2532 12.9658 18.9422 12.6667 18.5624 12.6667V6.66667C18.5624 5.5621 17.6391 4.66667 16.4999 4.66667H16.316C16.0782 4.26813 15.6339 4 15.1249 4C14.3655 4 13.7499 4.59695 13.7499 5.33333C13.7499 6.06971 14.3655 6.66667 15.1249 6.66667C15.6339 6.66667 16.0782 6.39853 16.316 6H16.4999C16.8797 6 17.1874 6.29848 17.1874 6.66667V12.6667H17.3315C16.9518 12.6667 16.6489 12.9666 16.5964 13.3313C16.4482 14.3604 15.9587 15.322 15.1923 16.0653C14.2627 16.9666 13.002 17.473 11.6874 17.473C10.3729 17.473 9.11221 16.9666 8.18271 16.0653C7.41621 15.322 6.92671 14.3604 6.77856 13.3313C6.72606 12.9666 6.42316 12.6667 6.04346 12.6667H6.18744V6.66667C6.18744 6.29848 6.49525 6 6.87494 6H7.05892C7.29666 6.39853 7.74099 6.66667 8.24994 6.66667Z" fill="#2B2B2B"/>
</svg>
